<svg xmlns="http://www.w3.org/2000/svg" width="500" height="500"><path fill="#F0F1F0" d="M238 44h19v6h3v7l2.438-.062C265 57 265 57 266 58c.098 1.33.13 2.666.133 4l.004 2.438-.012 2.562.012 2.563-.004 2.437-.004 2.25C266 76 266 76 265 77c-2 .04-4 .043-6 0l.035 2.59c.01 1.105.018 2.21.027 3.347l.036 3.34C259 89 259 89 258 90c-1.666.04-3.334.043-5 0l.035 3.21.028 4.165.025 2.117c.025 5.281.025 5.281-1.088 7.508h-5l.035 3.43.028 4.445.025 2.262c.025 5.636.025 5.636-1.088 7.863h-5l.035 3.465.028 4.472.025 2.288A183 183 0 0 1 241 141c-1 1-1 1-3.562 1.063L235 142l.254 2.992.309 3.883.316 3.867C236 156 236 156 235 158h-5v14l-4 1v8h11v-6l9-1v7l5 1v6h5v9l4 1v11h6v15h-15v6c-1 1-1 1-3.504 1.098l-3.059-.036-3.066-.027L239 231v5l1.848-.016a454221 454221 0 0 1 66.324-.557l28.833-.242c42.814-.364 42.814-.364 50.995.815 1 1 1 1 1.063 4.063L388 243l3.027-.035 3.91-.028 3.903-.035C402 243 402 243 403 244c.04 2 .043 4 0 6h8v7h6v6h5v2h6v48h-8v14h-9v6h-8v5h17v7l3.438-.062C427 345 427 345 428 346c.1 2.511.139 4.989.125 7.5l.012 2.129c-.01 5.244-.01 5.244-1.137 6.371-2 .04-4 .043-6 0v6c-4.875 1-4.875 1-6 1l-1 6h-7v6l-4 1v18l5 1-1 6 6 1 1 5h6v7h8v16h-7c.03 1.702.03 1.702.063 3.438C421 443 421 443 420 444c-2.439.1-4.85.134-7.289.127l-2.339.005c-2.606.004-5.213 0-7.82-.003l-5.581.006q-7.602.005-15.204 0c-5.291-.003-10.583 0-15.874 0q-13.332.003-26.663-.005a29018 29018 0 0 0-30.873.002q-13.23.007-26.456.003-7.913-.003-15.824.001-7.436.004-14.872-.005l-5.475.002q-3.72.002-7.441-.006l-2.218.007c-4.957-.02-4.957-.02-6.071-1.134q-.061-3.5 0-7h-12v-7h-5c-1.54-3.882-2.888-7.313-3.562-11.437L209 415l-2-1v-5l-4-1v-40h8l1-8h6l-.062-3.437C218 353 218 353 219 352c2-.04 4-.043 6 0l-.062-2.937C225 346 225 346 226 345c1.853-.072 3.708-.084 5.563-.062l3.066.027L237 345v-5h-34c-.812-3.247-1.095-4.937-.879-8.11l.147-2.285.17-2.355.158-2.402q.195-2.925.404-5.848h7l-.062-3.437C210 312 210 312 211 311q3.5-.062 7 0v-8h6v-23h-5c-1-1-1-1-1.062-4.562L218 272h-7v-5h-5v-4h-6v10l-5 1-.184 3.684-.254 4.753-.119 2.432c-.33 6.018-.33 6.018-1.443 7.131-2 .04-4 .043-6 0l.035 3.246.028 4.192.025 2.142c.009 1.807-.036 3.614-.088 5.42-1 1-1 1-3.562 1.063L181 308l.035 2.371.028 3.067.035 3.058C181 319 181 319 180 320h-5v14h-3v5h-4l-.184 3.684-.254 4.753-.119 2.432c-.33 6.018-.33 6.018-1.443 7.131-1.666.04-3.334.043-5 0l.035 2.59.028 3.348.035 3.34C161 369 161 369 160 370h-5v11l-4 1-.184 3.246-.254 4.192-.119 2.142c-.33 5.307-.33 5.307-1.443 6.42-1.666.04-3.334.043-5 0l-.184 2.195c-.43 4.976-.886 9.892-1.816 14.805l-6 1-1 6h-10v6c-3.215 1.607-6.436 1.057-10 1l.063 2.938C115 435 115 435 114 436c-2 .04-4 .043-6 0v4h-4v6H87c-.748-3.741-1.101-6.017-.879-9.645l.147-2.548.17-2.62.158-2.677q.195-3.255.404-6.51l-6-1v-46h6v-14l7-1 1-14h5l-.035-2.809-.028-3.628-.035-3.622C100 333 100 333 101 332a100 100 0 0 1 5 0l-.035-2.59-.028-3.348-.035-3.34C106 320 106 320 107 319c2-.04 4-.043 6 0l-.035-3.027-.028-3.91-.035-3.903C113 305 113 305 114 304h5v-20h7l-.035-2.555-.028-3.32-.035-3.305C126 272 126 272 127 270h6v-20h7v-13h6v-14h6l-.035-2.809-.028-3.629-.035-3.62C152 210 152 210 153 209a100 100 0 0 1 5 0v-6c-1.975.348-1.975.348-4 1l-1 2q-3.22.039-6.437.063l-3.622.035C140 206 140 206 139 205a153 153 0 0 1-.062-6.562l.027-3.63L139 192c-1.454.03-1.454.03-2.937.063C133 192 133 192 132 191a92 92 0 0 1-.062-5.062l.027-2.786L132 181h-6v-11l-5-1c-.879-6.152-.879-6.152-1-8 1-1 1-1 3.504-1.098l3.058.036 3.067.027L132 160v-7h8v-5h14v-6h13c1.125 6.75 1.125 6.75 0 11h6l1 6 9 2v-11h7v-14h6v-13h6l-.035-3.246-.028-4.192-.025-2.142c-.009-1.807.036-3.614.088-5.42l1-1h5V95h4V82h6V71h6V58l6-2-.062-2.437C230 51 230 51 231 50q3.5-.062 7 0zm-27 187-1 12h14v-5l-7-1v-6z"/><path fill="#090909" d="M238 44h19v6h3v7l2.438-.062C265 57 265 57 266 58c.098 1.33.13 2.666.133 4l.004 2.438-.012 2.562.012 2.563-.004 2.437-.004 2.25C266 76 266 76 265 77c-2 .04-4 .043-6 0l.035 2.59c.01 1.105.018 2.21.027 3.347l.036 3.34C259 89 259 89 258 90c-1.666.04-3.334.043-5 0l.035 3.21.028 4.165.025 2.117c.025 5.281.025 5.281-1.088 7.508h-5l.035 3.43.028 4.445.025 2.262c.025 5.636.025 5.636-1.088 7.863h-5l.035 3.465.028 4.472.025 2.288A183 183 0 0 1 241 141c-1 1-1 1-3.562 1.063L235 142l.254 2.992.309 3.883.316 3.867C236 156 236 156 235 158h-5v14l-4 1v8h11v-6l9-1v7l5 1v6h5v9l4 1v11h6v15h-15v6c-1 1-1 1-3.504 1.098l-3.059-.036-3.066-.027L239 231v5l1.848-.016a454221 454221 0 0 1 66.324-.557l28.833-.242c42.814-.364 42.814-.364 50.995.815 1 1 1 1 1.063 4.063L388 243l3.027-.035 3.91-.028 3.903-.035C402 243 402 243 403 244c.04 2 .043 4 0 6h8v7h6v6h5v2h6v48h-8v12h-7a888 888 0 0 1-.062-5.375l-.036-3.023C413 314 413 314 414 312h5v-40h-3v-7h-6v-7h-9v-7h-14v-7H225v7h-13v9h7v11h7v6h7v26h-7v9h-7v-8h6v-25h-7v-7h-7v-5h-5v-4h-6v10l-5 1-.184 3.684-.254 4.753-.119 2.432c-.33 6.018-.33 6.018-1.443 7.131-2 .04-4 .043-6 0l.035 3.246.028 4.192.025 2.142c.009 1.807-.036 3.614-.088 5.42-1 1-1 1-3.562 1.063L181 308l.035 2.371.028 3.067.035 3.058C181 319 181 319 180 320h-5v14h-3v5h-4l-.184 3.684-.254 4.753-.119 2.432c-.33 6.018-.33 6.018-1.443 7.131-1.666.04-3.334.043-5 0l.035 2.59.028 3.348.035 3.34C161 369 161 369 160 370h-5v11l-4 1-.184 3.246-.254 4.192-.119 2.142c-.33 5.307-.33 5.307-1.443 6.42-1.666.04-3.334.043-5 0l-.184 2.195c-.43 4.976-.886 9.892-1.816 14.805l-6 1-1 6h-10v6c-3.215 1.607-6.436 1.057-10 1l.063 2.938C115 435 115 435 114 436c-2 .04-4 .043-6 0v4h-4v6H87c-.748-3.741-1.101-6.017-.879-9.645l.147-2.548.17-2.62.158-2.677q.195-3.255.404-6.51l-6-1v-46h6v-14l7-1 1-14h5l-.035-2.809-.028-3.628-.035-3.622C100 333 100 333 101 332a100 100 0 0 1 5 0l-.035-2.59-.028-3.348-.035-3.34C106 320 106 320 107 319c2-.04 4-.043 6 0l-.035-3.027-.028-3.91-.035-3.903C113 305 113 305 114 304h5v-20h7l-.035-2.555-.028-3.32-.035-3.305C126 272 126 272 127 270h6v-20h7v-13h6v-14h6l-.035-2.809-.028-3.629-.035-3.62C152 210 152 210 153 209a100 100 0 0 1 5 0v-6c-1.975.348-1.975.348-4 1l-1 2q-3.22.039-6.437.063l-3.622.035C140 206 140 206 139 205a153 153 0 0 1-.062-6.562l.027-3.63L139 192c-1.454.03-1.454.03-2.937.063C133 192 133 192 132 191a92 92 0 0 1-.062-5.062l.027-2.786L132 181h-6v-11l-5-1c-.879-6.152-.879-6.152-1-8 1-1 1-1 3.504-1.098l3.058.036 3.067.027L132 160v-7h8v-5h14v-6h13c1.125 6.75 1.125 6.75 0 11h6l1 6 9 2v-11h7v-14h6v-13h6l-.035-3.246-.028-4.192-.025-2.142c-.009-1.807.036-3.614.088-5.42l1-1h5V95h4V82h6V71h6V58l6-2-.062-2.437C230 51 230 51 231 50q3.5-.062 7 0zm-27 187-1 12h14v-5l-7-1v-6z"/><path fill="#F3F4F3" d="M239 347h168v6h5v14h-5v7l-6 1-1 5h-6v29h6l.938 3.375c.885 3.42.885 3.42 2.062 5.625l2-1 1.313 2.938c1.388 3.34 1.388 3.34 4.687 4.062q-.212 2.22-.437 4.438l-.247 2.496C410 433 410 433 409 434c-2.278.097-4.56.122-6.84.12l-2.193.003c-2.443.002-4.886-.004-7.329-.01l-5.231.001q-7.125-.001-14.25-.013-7.437-.007-14.874-.008-14.094-.005-28.188-.021a55914 55914 0 0 0-32.081-.022q-33.008-.016-66.014-.05v-7h-13v-14h-7v-44h7v-8h-7v-1h6v-7h1v7h8v-7h12z"/><path fill="#C39136" d="M238 44h19v6h3v7l2.438-.062C265 57 265 57 266 58c.098 1.33.13 2.666.133 4l.004 2.438-.012 2.562.012 2.563-.004 2.437-.004 2.25C266 76 266 76 265 77c-2 .04-4 .043-6 0l.035 2.59c.01 1.105.018 2.21.027 3.347l.036 3.34C259 89 259 89 258 90c-1.666.04-3.334.043-5 0l.035 3.21.028 4.165.025 2.117c.025 5.281.025 5.281-1.088 7.508h-5l.035 3.43.028 4.445.025 2.262c.025 5.636.025 5.636-1.088 7.863h-5v16h-1v-17h5v-15c-4.959 3.221-4.959 3.221-5.707 6.14l-.106 2.11L239 121h-6v14h-3v13h-5v9h-7v17h-15v7h9v8h26l1-6 3 1v14h7v16c-4.84 1.613-7.093 2.242-11.875 2.125l-2.93-.055L232 216v7h-14v-13l-3.684.035-4.754.028-2.431.025c-2.044.009-4.088-.036-6.131-.088-1-1-1-1-1.062-4.562L200 202h-8v-6h-17v-7h-35v-7h-6v9h5v1c-2 .043-4 .04-6 0-1-1-1-1-1.098-3.285l.036-2.778.027-2.785L132 181h-6v-11l-5-1c-.879-6.152-.879-6.152-1-8 1-1 1-1 3.504-1.098l3.058.036 3.067.027L132 160v-7h8v-5h14v-6h13c1.125 6.75 1.125 6.75 0 11h6l1 6 9 2v-11h7v-14h6v-13h6l-.035-3.246-.028-4.192-.025-2.142c-.009-1.807.036-3.614.088-5.42l1-1h5V95h4V82h6V71h6V58l6-2-.062-2.437C230 51 230 51 231 50q3.5-.062 7 0z"/><path fill="#8A8B8B" d="M203 319h8v14h190v-8h9v8h-7v5h17v7l3.438-.062C427 345 427 345 428 346c.1 2.511.139 4.989.125 7.5l.012 2.129c-.01 5.244-.01 5.244-1.137 6.371-2 .04-4 .043-6 0v6c-4.875 1-4.875 1-6 1l-1 6h-7v6l-4 1v18l5 1-1 6 6 1 1 5h6v7h8v16h-7c.03 1.702.03 1.702.063 3.438C421 443 421 443 420 444c-2.439.1-4.85.134-7.289.127l-2.339.005c-2.606.004-5.213 0-7.82-.003l-5.581.006q-7.602.005-15.204 0c-5.291-.003-10.583 0-15.874 0q-13.332.003-26.663-.005a29018 29018 0 0 0-30.873.002q-13.23.007-26.456.003-7.913-.003-15.824.001-7.436.004-14.872-.005l-5.475.002q-3.72.002-7.441-.006l-2.218.007c-4.957-.02-4.957-.02-6.071-1.134q-.061-3.5 0-7h-12v-7h-5c-1.54-3.882-2.888-7.313-3.562-11.437L209 415l-2-1v-5l-4-1v-40h8l1-7h7v8h-7v44h7v14h13v7l2.446-.09c33.601-1.183 67.21-1.03 100.826-.982q12.09.016 24.183.022 24.772.015 49.545.05l2-9-4-1c-1.75-2.562-1.75-2.562-3-5l-2 1c-2.094-3.402-2.18-6.053-2-10h-6v-29h6l-.062-2.437C400 375 400 375 401 374c2-.04 4-.043 6 0v-7h5v-14h-5v-6H239v6h-12v7h-8v-8h6l-.062-2.937C225 346 225 346 226 345c1.853-.072 3.708-.084 5.563-.062l3.066.027L237 345v-5h-34c-.812-3.247-1.095-4.937-.879-8.11l.147-2.285.17-2.355.158-2.402q.195-2.925.404-5.848"/><path fill="#EDF2F7" d="M152 210h1v14h-6v14h-6v12h7v-12h7l.148 2.59.227 3.347.21 3.34L156 250l2 1v3l1.75.313c2.58.788 4.105 2.078 6.25 3.687l2.125.5C170 259 170 259 172 262c3.054 1.213 3.054 1.213 6 2l1 6h-4v8h-3v13h-6v14h-6v14h-6v14h-7v20h-6v14h-7v13h-7v15h-6v13h-7v6h-7v7h-6l.035 2.809.028 3.628.035 3.622C101 434 101 434 100 435h-5v-14h-7v-45h8v-14h6v-14h7v-14h5v-15h7v-14h6v-20h7v-14h-7v-1h6v-20h7v-13h6v-14h6z"/><path fill="#98A3B1" d="M161 210h12v6h7v8h12v47h-7v21h-5v14h6v-15h7v1h-6l.035 3.246.028 4.192.025 2.142c.009 1.807-.036 3.614-.088 5.42-1 1-1 1-3.562 1.063L181 308l.035 2.371.028 3.067.035 3.058C181 319 181 319 180 320h-5v14h-3v5h-4l-.184 3.684-.254 4.753-.119 2.432c-.33 6.018-.33 6.018-1.443 7.131-1.666.04-3.334.043-5 0l.035 2.59.028 3.348.035 3.34C161 369 161 369 160 370h-5v11l-4 1-.184 3.246-.254 4.192-.119 2.142c-.33 5.307-.33 5.307-1.443 6.42-1.666.04-3.334.043-5 0-.09 1.087-.09 1.087-.184 2.195-.43 4.976-.886 9.892-1.816 14.805l-6 1-1 6h-10v6c-3.215 1.607-6.436 1.057-10 1l.063 2.938C115 435 115 435 114 436c-2 .04-4 .043-6 0v4h-4v6H87c-.748-3.741-1.101-6.017-.879-9.645l.147-2.548.17-2.62.158-2.677q.195-3.255.404-6.51l-6-1v-46h6v-14l7-1 1-14h5l-.035-2.809-.028-3.628-.035-3.622C100 333 100 333 101 332a100 100 0 0 1 5 0l-.035-2.59-.028-3.348-.035-3.34C106 320 106 320 107 319c2-.04 4-.043 6 0l-.035-3.027-.028-3.91-.035-3.903C113 305 113 305 114 304h5v-20h7l-.035-2.59-.028-3.348-.035-3.34C126 272 126 272 127 271h7v14h-7v20h-6v14h-7v15h-5v14h-7v14h-6v14h-8v45h7v14l5-1 1-13h6v-7h7v-6h7v-13h6v-15h7v-13h7v-14h6v-20h7v-14h6v-14h6v-14h6v-13h3l-1-3c.438-2.687.438-2.687 1-5l3-1-2-6h-5l-1-4-1.687.813L166 260c-2.562-2.375-2.562-2.375-5-5l-3-1v-3l-3-1c-.891-8.689-1.116-17.269-1-26h7z"/><path fill="#B27D2C" d="M232 64h7v7h5v35h8v1h-5l.035 3.43.028 4.445.025 2.262c.025 5.636.025 5.636-1.088 7.863h-5v16h-1v-17h5v-15c-4.959 3.221-4.959 3.221-5.707 6.14l-.106 2.11L239 121h-6v14h-3v13h-5v9h-7v17h-15v7h9v8h26l1-6 3 1v14h7v16c-4.84 1.613-7.093 2.242-11.875 2.125l-2.93-.055L232 216v7h-14v-13l-3.684.035-4.754.028-2.431.025c-2.044.009-4.088-.036-6.131-.088-1-1-1-1-1.062-4.562L200 202c-1.454.03-1.454.03-2.937.063C194 202 194 202 193 201q-.061-3.5 0-7l4 1c2.277-2.815 2.277-2.815 2-6 .286-2.674.65-5.334 1-8h-14v-6l-2.937.063C180 175 180 175 179 174c-.125-2.5-.125-2.5 0-5 1-1 1-1 4.063-1.062L186 168v-6h7v-11h6l-.562 2.25c-.43 2.7-.29 4.196.562 6.75h2l-1-19 4-1c.09-1.373.09-1.373.184-2.773l.254-3.602c.08-1.183.162-2.367.246-3.586C205 127 205 127 206 125h4v-17h7V97h3V84h6V72h6z"/><path fill="#515150" d="M127 271h7v14h-7v20h-6v14h-7v15h-5v14h-7v14h-6v14h-8v45h7v14h12v-8h7v-7l5-1 1-6h8v-5h7v-14h6v-14h6v-13h5v-13h3v-8h5v-13h7v-14h6v-13c4 1 4 1 7 2v12h-5v14h-3v5h-4l-.184 3.684-.254 4.753-.119 2.432c-.33 6.018-.33 6.018-1.443 7.131-1.666.04-3.334.043-5 0l.035 2.59.028 3.348.035 3.34C161 369 161 369 160 370h-5v11l-4 1-.184 3.246-.254 4.192-.119 2.142c-.33 5.307-.33 5.307-1.443 6.42-1.666.04-3.334.043-5 0-.09 1.087-.09 1.087-.184 2.195-.43 4.976-.886 9.892-1.816 14.805l-6 1-1 6h-10v6c-3.215 1.607-6.436 1.057-10 1l.063 2.938C115 435 115 435 114 436c-2 .04-4 .043-6 0v4h-4v6H87c-.748-3.741-1.101-6.017-.879-9.645l.147-2.548.17-2.62.158-2.677q.195-3.255.404-6.51l-6-1v-46h6v-14l7-1 1-14h5l-.035-2.809-.028-3.628-.035-3.622C100 333 100 333 101 332a100 100 0 0 1 5 0l-.035-2.59-.028-3.348-.035-3.34C106 320 106 320 107 319c2-.04 4-.043 6 0l-.035-3.027-.028-3.91-.035-3.903C113 305 113 305 114 304h5v-20h7l-.035-2.59-.028-3.348-.035-3.34C126 272 126 272 127 271"/><path fill="#AC7D34" d="M238 44h19v6h3v7l2.438-.062C265 57 265 57 266 58c.098 1.33.13 2.666.133 4l.004 2.438-.012 2.562.012 2.563-.004 2.437-.004 2.25C266 76 266 76 265 77c-2 .04-4 .043-6 0l.035 2.59c.01 1.105.018 2.21.027 3.347l.036 3.34C259 89 259 89 258 90c-1.666.04-3.334.043-5 0l.035 3.246.028 4.192.025 2.142c.009 1.807-.036 3.614-.088 5.42l-1 1h-8V71h-5v-7h-7v8h-6v12h-6v13h-3v11h-7v17h-4l-1 15-5 1 .496 2.57c.513 3.495.603 6.776.566 10.305l-.027 3.492L201 160l-3 1c-.879-6.152-.879-6.152-1-8l1-1-5-1v11h-7v6h-13v-7h10v-11h7v-14h6v-13h6l-.035-3.246-.028-4.192-.025-2.142c-.009-1.807.036-3.614.088-5.42l1-1h5V95h4V82h6V71h6V58l6-2-.062-2.437C230 51 230 51 231 50q3.5-.062 7 0z"/><path fill="#404147" d="M134 182h6v7h35v7h17v6h8l1 7 17 1v13h7v1h-19v6h-3v14h-4v7h-7v-27h-12v-8h-7v-6h-12v14h-7v14h-6v12h-7v-12h6v-14h6v-15h5v-6c-1.975.348-1.975.348-4 1l-1 2q-3.22.039-6.437.063l-3.622.035C140 206 140 206 139 205a177 177 0 0 1-.062-7.062l.027-3.91L139 191h-5z"/><path fill="#040404" d="M212 361h7v8h-7v44h7v15h12v7h189v7l-190 1v-7h-12v-7h-5c-1.54-3.882-2.888-7.313-3.562-11.437L209 415l-2-1v-5l-4-1v-40h8z"/><path fill="#8B7049" d="M245 109v15h-5v18h-5l.254 2.992.309 3.883.316 3.867C236 156 236 156 235 158h-5v14l-4 1v8h11v-6l9-1v7l5 1v6h5v9l4 1v11h6v15h-15v6c-1 1-1 1-3.504 1.098l-3.059-.036-3.066-.027L239 231v5h-1v-6h-13v-7h7v-7l17-2-1-15-6-1-.148-3.027-.227-3.91-.21-3.903c-.138-1.043-.274-2.086-.415-3.16l-2-1-1 6h-26v-8h-9v-7h15v-17h7v-9h5v-13h3v-14h6l-.25-3.75c-.012-3.272.077-4.02 2.125-6.75C243 109 243 109 245 109"/><path fill="#060707" d="M203 319h8v14h190v-8h9v8h-8v6h17v6c-7.06.935-13.946 1.12-21.062 1.063l-3.202-.014q-3.868-.018-7.736-.049v-6H255v6h-17v-7l-1.706.092c-11.108.588-22.167 1.076-33.294.908-.825-2.834-1.08-5.17-.879-8.11l.147-2.285.17-2.355.158-2.402q.195-2.925.404-5.848"/><path fill="#EEC645" d="M232 64h7v7h5v7h-6v12h-5v13h-5v19h-5v14h-5v12h-6v12h-6v8h-14v7h10v5c-1 1-1 1-4.379 1.098q-2.091-.01-4.184-.036l-2.154-.013q-2.64-.02-5.283-.049v-6l-2.937.063C180 175 180 175 179 174c-.125-2.5-.125-2.5 0-5 1-1 1-1 4.063-1.062L186 168v-6h7v-11h6l-.562 2.25c-.43 2.7-.29 4.196.562 6.75h2l-1-19 4-1c.09-1.373.09-1.373.184-2.773l.254-3.602c.08-1.183.162-2.367.246-3.586C205 127 205 127 206 125h4v-17h7V97h3V84h6V72h6z"/><path fill="#6490D4" d="M271 291h108v16H271z"/><path fill="#618ED7" d="M251 394h107v15H245v-8h6z"/><path fill="#898A8E" d="M402 333h1v5h17v7h7v1h-7v15h-8v-8h-5v-6H239v6h-12v7h-8v-8h6l-.062-2.937C225 346 225 346 226 345c1.853-.072 3.708-.084 5.563-.062l3.066.027L237 345v-5h-20v-1h21v7h17v-6h132v6q5.5-.212 11-.437l3.121-.12c5.681-.235 11.25-.638 16.879-1.443l1-5h-17z"/><path fill="#9E6922" d="M238 78h6v28h8v1h-5l.035 3.43.028 4.445.025 2.262c.025 5.636.025 5.636-1.088 7.863h-5v16h-1v-17h5v-15c-4.959 3.221-4.959 3.221-5.707 6.14l-.106 2.11L239 121h-6v14h-3v13h-5v9h-7v17h-15v7h-1v-6h-10v-7h14v-8h6v-12h6v-12h5v-14h5v-19h5V90h5z"/><path fill="#171818" d="M173 306c4 1 4 1 7 2v12h-5v14h-3v5h-4c-.09 1.823-.09 1.823-.184 3.684l-.254 4.753-.119 2.432c-.33 6.018-.33 6.018-1.443 7.131-1.666.04-3.334.043-5 0l.035 2.59.028 3.348.035 3.34C161 369 161 369 160 370h-5v11l-4 1c-.09 1.607-.09 1.607-.184 3.246l-.254 4.192-.119 2.142c-.33 5.307-.33 5.307-1.443 6.42-1.666.04-3.334.043-5 0-.09 1.087-.09 1.087-.184 2.195-.43 4.976-.886 9.892-1.816 14.805h-8v6h-10v6h-9v-6h6v-7h7v-6h7v-14h6v-14h6v-13h5v-13h3v-8h5v-13h7v-14h6z"/><path fill="#616161" d="M356.63 234.912q2.31-.006 4.62-.016c17.617-.075 17.617-.075 25.75 1.104 1 1 1 1 1.062 4.063L388 243l3.027-.035c1.29-.01 2.581-.018 3.91-.027l3.903-.036C402 243 402 243 403 244c.04 2 .043 4 0 6h8v7h6v6h5v2h6v48h-8v12h-7a888 888 0 0 1-.063-5.375l-.035-3.023C413 314 413 314 414 312h5v-40h-3v-7h-6v-7h-9v-7h-14v-7H210v-1h14v-5l-4-1h5v6h161v-6H239v-1q18.403-.2 36.807-.391l17.104-.182c43.592-.472 43.592-.472 63.719-.515"/><path fill="#CACBCE" d="M250 347h157v6h5v14h-5v7l-7 1v-14l6-2c1.42-2.001 1.42-2.001 2-4-4.835-2.52-9.436-2.269-14.747-2.227h-2.958c-3.22 0-6.439.016-9.658.032l-6.705.008c-5.877.008-11.754.028-17.632.05-5.999.02-11.998.03-17.997.04-11.768.02-23.535.055-35.303.097l-1 2-4-1-1 2-1-2c-2.025-.652-2.025-.652-4-1v2l-9 1v-2l-5.957.098C275 354 275 354 272 353c-4.047-.135-7.621-.059-11.625.563-3.427.444-6.006.064-9.375-.563l-2 1c0-3 0-3 1.5-4.687L252 348z"/><path fill="#A3A8AF" d="m161 221 2 1v2h4v2l2.438.688c4.475 1.648 8.45 3.917 12.562 6.312v2l2.25.688c3.447 1.644 4.814 3.014 6.75 6.312.323 2.761.19 5.204 0 8h-6v7h-5v14h-4v8l-4-1h3l-1-3c.438-2.687.438-2.687 1-5l3-1-2-6h-5l-1-4-1.687.813L166 260c-2.562-2.375-2.562-2.375-5-5l-3-1v-3l-3-1c-.891-8.689-1.116-17.269-1-26h7z"/><path fill="#939CA9" d="M141 354h5l-1 5 3 1 1.438-1.5C151 357 151 357 152 357v10h-5v13h-6v14h-6v14h-7v5h-8l-1 6-5 1v7h-7v8h-7l1-14h6v-7h7v-6h7v-13h6v-15h7v-13h7z"/><path fill="#020202" d="M245 109v15h-5v18h-5l.254 2.992.309 3.883.316 3.867C236 156 236 156 235 158h-5v14h-5v10h13v7h-26v-8h-9v-7h15v-17h7v-9h5v-13h3v-14h6l-.25-3.75c-.012-3.272.077-4.02 2.125-6.75C243 109 243 109 245 109"/><path fill="#90939A" d="M161 210h12v6h7v8h12v47h-7v21h-5v14h6v-15h7v1h-6l.035 3.246.028 4.192.025 2.142c.009 1.807-.036 3.614-.088 5.42l-1 1h-5v11h-1l-1-10-3-1c-1.687-1.562-1.687-1.562-3-3h6v-14h5q-.214-3.345-.437-6.687l-.247-3.762c-.26-2.933-.664-5.685-1.316-8.551h-2v-15h5v-7h6c-.248-5.96-.248-5.96-3.375-10.875-2.624-2.19-2.624-2.19-5.625-4.125v-2l-1.64-.309c-2.966-.869-5.415-2.246-8.11-3.754l-2.984-1.66L167 226v-2h-4c-3.044-4.566-2.128-8.567-2-14"/><path fill="#C1DBF7" d="M379 291h1v8h6q.039 3.219.063 6.438l.035 3.62C386 312 386 312 385 313c-1.48.096-2.965.122-4.448.12l-2.911.004-3.22-.01h-3.37c-3.695 0-7.39-.009-11.086-.016l-7.664-.005q-9.074-.005-18.147-.021-10.327-.016-20.655-.022-21.25-.016-42.499-.05v-6h108z"/><path fill="#C3D9F2" d="m358 400 7 1v14H252v-5h-7v-1h113z"/><path fill="#DDAE3D" d="M232 64h7v7h5v7h-6v12h-5v13h-5v19h-5l2-2c-.323-3.597-.323-3.597-1-7l-4-1-4 6-2-2c-2.565 2.565-2.54 4.477-3 8h-1v-16h7V97h3V84h6V72h6z"/><path fill="#ADAFB3" d="M212 361h7v8h-7v44h7v15h12v15h-1v-7h-12v-7h-5c-1.54-3.882-2.888-7.313-3.562-11.437L209 415l-2-1v-5l-4-1v-40h8z"/><path fill="#C18C32" d="M201 180c1.858.09 3.712.246 5.563.438l3.066.308L212 181l1 10h9c1.97 4.927 2.18 8.78 2 14h-1l-1 6-3-1a87 87 0 0 0-4.45-.316l-2.568-.127-2.67-.12-2.705-.13q-3.303-.159-6.607-.307v-7l-2.937.063C194 202 194 202 193 201q-.061-3.5 0-7l4 1c2.277-2.815 2.277-2.815 2-6 .704-7.704.704-7.704 2-9"/><path fill="#686969" d="M420 346h8q.04 3.719.063 7.438l.025 2.142c.009 1.807-.036 3.614-.088 5.42-1 1-1 1-4.062 1.063L421 362v6c-4.875 1-4.875 1-6 1l-1 6h-7v6l-4 1v18l5 1-1 7h-13v-28h6l-.062-2.437C400 375 400 375 401 374c2-.04 4-.043 6 0v-7h5v-6h8z"/><path fill="#0A0605" d="M154 142h13c.828 4.967 1 7.333 0 12h5v7h-6v-7h-19v7l-13 1-1 18h-6v-11h-6c-.879-6.152-.879-6.152-1-8 1-1 1-1 3.504-1.098l3.058.036 3.067.027L132 160v-7h8v-5h14z"/><path fill="#B1B4B9" d="M402 333h1v5h17v7h7v1h-7v15h-8v-8h-5v-6H239v6h-12v7h-8v-8h6l-.062-2.937C225 346 225 346 226 345c1.853-.072 3.708-.084 5.563-.062l3.066.027L237 345v-5h-20v-1h21v7q33.432-.16 66.864-.34 15.522-.083 31.046-.157 13.531-.065 27.064-.14 7.162-.04 14.326-.072 6.747-.03 13.494-.071 2.472-.015 4.944-.023 3.385-.014 6.77-.039l3.821-.02c3.954-.149 7.754-.594 11.671-1.138l1-5h-17z"/><path fill="#3D3B3C" d="m168 203 16 1 1 4 14 1v7h6l-2-6h15v13h7v1h-19v6h-3v14h-1v-13h-2v-2h-2l-.375-1.937L197 225l-2-1v-1l-6-1v-3h-2v-3l-3 1-1-3a225 225 0 0 0-5.367-2.957c-2.09-1.335-2.544-2.864-3.633-5.043-3.042-1.292-3.042-1.292-6-2z"/><path fill="#191615" d="M258 59h7v18h-6l.035 2.59c.01 1.105.018 2.21.027 3.347l.036 3.34C259 89 259 89 258 90c-1.666.04-3.334.043-5 0l.035 3.246.028 4.192.025 2.142c.009 1.807-.036 3.614-.088 5.42l-1 1h-8V78h7v-9h7z"/><path fill="#F4D54B" d="m220 111 5 1v8l2 1h-4v15h-5v12h-6v2l-4 1-1-3-2-1v-2h-2l-1-4 2-1c.432-2.98.432-2.98.563-6.437.342-6.374.342-6.374 1.437-8.563 2.063-.625 2.063-.625 4-1l.813-3.375C212 117 212 117 215 115h2c1.637-1.96 1.637-1.96 3-4"/><path fill="#C8C9CB" d="m413 408 1 5h6v1l-7 1-1 6 3.438-.062C419 421 419 421 420 422v13H231v-7h-12v-1h13v7l2.446-.09c33.601-1.183 67.21-1.03 100.826-.982q12.09.015 24.183.022 24.772.015 49.545.05l2-9-4-1c-1.75-2.562-1.75-2.562-3-5l-2 1c-2.094-3.402-2.18-6.053-2-10h-6v-1q3.061-.294 6.125-.562l3.445-.317c3.319-.117 6.186.213 9.43.879"/><path fill="#C9CBD0" d="m155 231 1 2 3-1v2h2l1 7 2.188.375c2.787.62 5.17 1.555 7.812 2.625a377 377 0 0 0 7 2v2l4 2v4l2 3h-5v14h-4v8l-4-1h3l-1-3c.438-2.687.438-2.687 1-5l3-1-2-6h-5l-1-4-1.687.813L166 260c-2.562-2.375-2.562-2.375-5-5l-3-1v-3l-3-1c-.784-6.565-1.11-12.468 0-19"/><path fill="#321706" d="M134 182h6v7h35v8l-4 1v-2h-11v5l-6 1-1 4q-3.22.039-6.437.063l-3.622.035C140 206 140 206 139 205a177 177 0 0 1-.062-7.062l.027-3.91L139 191h-5z"/><path fill="#986320" d="M232 123h1v12h-3v13h-5v9h-7v17h-15v7h-1v-6h-10v-7h14v-8h6v-2h4l-.125-2.312C216 153 216 153 218 150l3-1 1-5h2l-.105-1.898-.083-2.477-.105-2.46L224 135l3-2c.73-2.563.73-2.563 1-5h3z"/><path fill="#BBC0C9" d="M410 265h6v7h3v40h-5l-1 13h7v2h-9v6h-1z"/><path fill="#D29F38" d="M160 155h5v7h7v6h8v6l6 1v6h14c.142 9.64.142 9.64-1 13l-2 2c-1.812-.375-1.812-.375-4-1a99 99 0 0 0-5 0l-.562-2.187c-1.75-3.422-3.683-4.492-6.825-6.547-2.208-1.732-2.808-3.63-3.613-6.266l-2-1 1-2-3-1c-.75-1.937-.75-1.937-1-4l1-2-5 1v-2l-6-1c-2-5.75-2-5.75-2-8l-2-2 2-1z"/><path fill="#848486" d="M219 279h6v25h-6v17l-5 2-2 9h174v-7h15v8H211l-1-21c1-1 1-1 4.563-1.062L218 311v-8h6v-23h-5z"/><path fill="#0A0B0B" d="M143 381h5v16l-5 1-1 17h-8v6h-10v6h-9v-6h6v-7h7v-6h7v-14h6l-.07-2.117-.055-2.758-.07-2.742C141 384 141 384 143 382z"/><path fill="#9CA3AF" d="M127 380h7v1h-6c.087 2.272.195 4.542.313 6.813l.175 3.832c.538 3.525.903 4.18 3.512 6.355.688 3.188.688 3.188 1 6h-2v3h-3v6h-8l-1 6-5 1v7h-7v8h-7l1-14h6v-7h7v-6h7v-13h6zm1 16 1 2Z"/><path fill="#090503" d="M241 176h4v6h5v7h5c.161 8.213.161 8.213-.562 11.75-.675 2.71-.675 2.71.562 7.25l10 2v13h-15c-1.046-3.138-1.042-5.05-.879-8.324l.147-3.115.17-3.249.158-3.283q.195-4.014.404-8.029h-7v-16l-4-1 3-2z"/><path fill="#413B33" d="M218 72h7v11h-5v14h-3v11h-7v16h-7v-17h5V95h4V82h6z"/><path fill="#E9EBED" d="M393 367h7v13h-6v29h6v6l-3 1a95 95 0 0 0-4 5v-6h-6c-1.576-13.333-.665-26.632 0-40h6z"/><path fill="#040505" d="M420 266h7v46h-7v13h-7a888 888 0 0 1-.062-5.375l-.036-3.023C413 314 413 314 414 312l5-1z"/><path fill="#C9CBD0" d="M358 347h49v6h5v14h-5v7l-7 1v-14l6-2c1.42-2.001 1.42-2.001 2-4-4.167-1.964-7.791-2.382-12.375-2.625l-2.183-.126c-4.51-.225-8.983-.241-13.497-.132l-3.112.061q-3.04.07-6.077.21l-2.834.065-2.513.099C363 352 363 352 358 347"/><path fill="#3E3F40" d="M212 260h7v11h7v6h7v26h-7v9h-7v-8h6v-25h-7v-7h-7v-5h-5v-4h-6v10h-1v-11h8v4h5v5h6v-10h-6z"/><path fill="#24211E" d="M245 109v15h-5v18h-5l.254 2.992.309 3.883.316 3.867C236 156 236 156 235 158h-5v14h-2l-1-22 5-1-.035-2.336-.028-3.039-.035-3.023C232 138 232 138 233 136h-2v12h-1v-13h3v-14h6l-.25-3.75c-.012-3.272.077-4.02 2.125-6.75C243 109 243 109 245 109"/><path fill="#3A3A3A" d="M113 305h1v29h-5v14h-7v13h-6v-14h5v-15h5l-.035-2.59-.028-3.348-.035-3.34C106 320 106 320 107 319h6z"/><path fill="#909196" d="M365.313 339.875q3.162.016 6.326.027 7.68.035 15.361.098v6h-62c9.382-9.382 27.84-6.229 40.313-6.125"/><path fill="#070807" d="M160 203h6v6h-5v15h-7v14h-6v12h-7v-12h6v-14h6v-14h6z"/><path fill="#050504" d="M203 368h8v43l-2 1v-4h-6z"/><path fill="#7E848F" d="M185 250h7v21h-7v21h-5v14h6v-15h7v1h-6l.035 3.246.028 4.192.025 2.142c.009 1.807-.036 3.614-.088 5.42l-1 1h-5v11h-1l-1-10-3-1c-1.687-1.562-1.687-1.562-3-3h6v-14h5q-.214-3.345-.437-6.687l-.247-3.762c-.26-2.933-.664-5.685-1.316-8.551h-2v-15h5z"/><path fill="#FCFEFE" d="M89 376h6c1.65 3.3 1.286 6.988 1.387 10.621l.077 2.593q.078 2.718.149 5.435c.074 2.774.165 5.548.256 8.322q.073 2.638.143 5.275l.088 2.52c.129 5.89.129 5.89-2.1 9.234h-6z"/><path fill="#D4D5D9" d="m316.484 346.823 2.741-.039 2.955-.022 3.045-.025q3.19-.02 6.38-.032c3.25-.017 6.5-.061 9.75-.105q3.1-.015 6.2-.026l2.942-.053c5.692.018 8.165.56 12.503 4.479 2.807.53 2.807.53 5.79.355l3.355-.052 3.48-.116c8.216-.192 16.203-.138 24.375.813v1c-30.351.13-60.66-.126-91-1v-4c2.805-.935 4.578-1.141 7.484-1.177"/><path fill="#B7D3F8" d="M245 409h113v1h-56l1 3c-10.37 1.324-20.757 1.113-31.187 1.063q-2.744-.009-5.487-.014-6.663-.017-13.326-.049l-1-3-7-1z"/><path fill="#6C6962" d="M175 196h17v6h8l.25 3.375c.329 3.683.329 3.683 2.813 5.063L205 211v5h-6v-7h-14l-1-5h-9z"/><path fill="#070806" d="M82 376h6v45l-6-1z"/><path fill="#090A0A" d="M88 421h7v14h12v4h-4v6q-3.468.039-6.937.063l-3.903.035C89 445 89 445 88 444a91 91 0 0 1-.098-5.129l.01-3.135.025-3.298.014-3.311q.018-4.064.049-8.127"/><path fill="#B6BAC0" d="M154 224h7c1.354 2.709 1.065 5.01 1 8l5 1v2l1.688.813C171 237 171 237 173.25 238.5c2.533 1.382 4.106 1.81 6.875 2.313 2.07.449 2.07.449 3.875 1.187 2 3.125 2 3.125 3 6l-1 1a236 236 0 0 0-1 7l-3-1 1-4-2-1.375-2-1.625v-2l-2.187.063c-2.732-.061-5.156-.456-7.813-1.063v-2l-7-2-1-7-5-1-1 5h-1z"/><path fill="#040504" d="M394 381h8v20h6l-1 7h-13z"/><path fill="#945D1D" d="M239 78h5v28h8v1h-5l.035 3.43.028 4.445.025 2.262c.025 5.636.025 5.636-1.088 7.863h-5v16h-1v-17h5v-15c-4.959 3.221-4.959 3.221-5.707 6.14l-.106 2.11L239 121h-1l.035-3.98.028-5.207.025-2.62c.016-4.196-.012-8.102-1.088-12.193h2z"/><path fill="#060302" d="M250 182h1v6h5v9l4 1v11h6v15h-15v6h-12v-6h5v-8h6v7h15v-13l-5.957.195C257 210 257 210 254 208c-1.252-4.524-.857-8.293-.062-12.875l.59-3.492L255 189h-5z"/><path fill="#B0CEF4" d="M379 291h1v8h6q.039 3.219.063 6.438l.035 3.62C386 312 386 312 385 313a66 66 0 0 1-4.473-.121l-2.724-.147-2.865-.17-2.877-.158Q368.53 312.21 365 312v-2c12.67-.185 12.67-.185 18 1v-2l-1.937.563L379 310l-1-1a61 61 0 0 0-4.182-.158l-2.733-.03-3.02-.017-3.164-.03q-5.202-.046-10.405-.081l-7.193-.063q-9.486-.082-18.973-.153-9.672-.077-19.344-.161-18.993-.162-37.986-.307v-1h108z"/><path fill="#474748" d="M152 354h1l.184 2.809.254 3.628c.08 1.195.162 2.39.246 3.622-.007 2.827-.007 2.827 1.316 3.941h5v-12h6v1h-5l.035 2.59.028 3.348.035 3.34C161 369 161 369 160 370h-5v11l-4 1-.184 3.246-.254 4.192-.119 2.142c-.33 5.307-.33 5.307-1.443 6.42h-5l-1 11h-1a920 920 0 0 1-.062-5.437l-.036-3.06C142 398 142 398 143 397h5l-1-15-2 1-1-1-2 3-1-5h6v-13h5z"/><path fill="#8E99AA" d="M402 333h1v5h17v7h7v1h-7v15h-8v-8h-5v-6h-20v-1l1.984-.076q4.508-.178 9.016-.361l3.121-.12c5.681-.235 11.25-.638 16.879-1.443l1-5h-17z"/><path fill="#7496CB" d="M251 394h107v7h-1l-1-5q-14.33-.07-28.663-.104-6.656-.014-13.313-.047-6.438-.032-12.877-.039-2.442-.004-4.883-.021c-8.667-.056-16.895.168-25.444 1.835-3.983.53-7.637.033-11.578-.628-2.294-.226-2.294-.226-3.879 1.285L254 400l-1.387 1.535c-2.724 2.833-2.724 2.833-3.613 6.465l2 1h-6v-8h6z"/><path fill="#070403" d="M155 144h11l1 9 5 1v7h-6v-7c-3.292.11-6.584.24-9.875.375-.937.03-1.874.062-2.84.094l-2.715.117-2.507.095c-2.283.145-2.283.145-4.063 2.319l-1-7c2.882-.96 4.699-1.106 7.688-1.062l2.449.027L155 149z"/><path fill="#CDDBEC" d="M271 309h2v3l2.359-.478c4.642-.665 9.215-.775 13.899-.874l3.044-.071q4.91-.11 9.823-.202l3.38-.068c14.592-.284 29.157-.375 43.745.068l2.161.065c9.215.289 18.398.84 27.589 1.56v1H271z"/><path fill="#949CA9" d="M176 271h6c1.807 4.624 2.218 8.425 2.125 13.375l-.055 3.773L184 291h-5v14l-4-1 3-1a492 492 0 0 0-.375-5.375c-.07-.998-.14-1.995-.21-3.023-.179-2.757-.179-2.757-2.415-4.602l-1 2-1-3 1-1a65 65 0 0 0-.937-4.562l-.59-2.504L172 279h4z"/><path fill="#121111" d="M141 190h6v6h13v5l-6 1-1 4h-13q-.04-3.437-.062-6.875l-.036-3.867C140 192 140 192 141 190"/><path fill="#090504" d="M216 95v13h-6v16h-7v-16h6V96c4-1 4-1 7-1"/><path fill="#1E1005" d="M203 174h15v3h-5l3 9 14 1-1-5h9v7h-26v-8h-9z"/><path fill="#E1B23F" d="m232 84 .813 1.875C233.956 88.3 233.956 88.3 237 90h-4v13l-5 1-1 4h-2l-2 2v-2h-2l-1 2c-.988-2.965-1.077-4.918-1-8v-3l3-1c1.18-.994 1.18-.994 1.375-2.875.731-2.487 1.617-3.518 3.625-5.125h2l-1-3h3z"/><path fill="#424449" d="M160 196q2.625-.04 5.25-.062l2.953-.036c2.455.086 4.459.39 6.797 1.098v7h-2l2 2-1 5-13-1v-1h5v-6h-6l-1 7h-6v-1h5v-6l-5 1 1-3 5-1z"/><path fill="#E7C863" d="m182.723 167.902 3.34.036 3.347.027L192 168v7h10v5c-1 1-1 1-4.379 1.098q-2.091-.01-4.184-.036l-2.154-.013q-2.64-.02-5.283-.049v-6c-1.454.03-1.454.03-2.937.063C180 175 180 175 179 174c-.125-2.5-.125-2.5 0-5 1-1 1-1 3.723-1.098"/><path fill="#909395" d="M410 258h6v5h6v2h6v48h-8v-1h7v-46h-7v45h-1v-39h-3v-7h-6z"/><path fill="#5D88C7" d="M316.162 406.297c3.429.079 6.857.146 10.285.21 10.544.215 21.054.433 31.553 1.493v1H254v-1q7.166-.446 14.334-.848 2.55-.146 5.099-.297c14.267-.839 28.444-.888 42.73-.558"/><path fill="#939495" d="M120 413h8v1h-7v7h-6l.563 1.875C116 425 116 425 115 427h9v-6h10v-6l2 1-1 6h-10v6c-3.215 1.607-6.436 1.057-10 1l.063 2.938C115 435 115 435 114 436c-2 .04-4 .043-6 0v4h-4v6H87v-1h16v-6h4v-12h7v-7l5-1z"/><path fill="#818183" d="M255 340h41v2c-1.16.09-1.16.09-2.344.184q-4.83.39-9.656.816l-2.543.219c-1.828.186-3.645.473-5.457.781l-1 2h-20z"/><path fill="#7B4C1F" d="M232 216h11v7h-5v7h-13v-7h7z"/><path fill="#CCCDD0" d="M230 250c-1.889 2.834-3.18 4.205-6 6h-3l1 2q.53 1.993 1 4h-2v2l5 2v5h-7v-11h-7v-9q3.093-.254 6.188-.5l3.48-.281c2.793-.184 5.535-.261 8.332-.219"/><path fill="#774C1F" d="M257 50h3v7l2.438-.062C265 57 265 57 266 58c.086 1.343.107 2.69.098 4.035l-.01 2.451-.026 2.576-.013 2.588q-.02 3.175-.049 6.35h-1V59h-7v10h-7v9c-1.666.043-3.334.04-5 0-1-1-1-1-1.062-3.562L245 72h2l-1-5 6-1v-2l4-2v-2l-6-1 1.938-.312L254 58l1-3h3l1-4z"/><path fill="#323332" d="M154 142h13c1.125 6.75 1.125 6.75 0 11h-1v-9l-5.957.879C158 145 158 145 155 144v5l-12 1c.256 2.343.593 4.678 1 7l2 1c-3.216 2.144-3.958 2.212-7.625 2.063A86 86 0 0 0 134 160l-1 1a168 168 0 0 1-6.562.563l-3.63.253L120 162l1-2h11v-7h8v-5h14z"/><path fill="#0A0706" d="M184 151h7v10h-5v7h-13v-7l3.813-.062 2.144-.036C181 161 181 161 184 162z"/><path fill="#955D1C" d="M232 123h1v12h-3v13h-5v9h-6l3-1-.562-3.187c-.389-3.384-.32-5.577.562-8.813h2l-.105-1.898-.083-2.477-.105-2.46L224 135l3-2c.73-2.563.73-2.563 1-5h3z"/><path fill="#E8B949" d="M193 151h6l-.562 2.25c-.433 2.719-.435 4.212.562 6.75l2 1-2 6 5-1 1-6h1v8h-20v-6h7z"/><path fill="#090A0C" d="M416.563 413.938 420 414v7h7v14h-7l-1-13-7-1c-.043-2-.04-4 0-6 1-1 1-1 4.563-1.062"/><path fill="#080504" d="M239 45h17l1 5 2 1-1 5h-3l-1 2h-4v-7h-11z"/><path fill="#C1C1C1" d="M219 279h6v25h-6v17l-5 2c-1.028 2.158-1.028 2.158-1.312 4.625l-.426 2.477L212 332h-1c-.196-3.312-.38-6.625-.562-9.937l-.17-2.866-.147-2.724-.143-2.524C210 312 210 312 211 311q3.5-.062 7 0v-8h6v-23h-5z"/><path fill="#050302" d="M258 210h7v13h-15c-1.044-3.133-.934-3.99 0-7h8z"/><path fill="#050404" d="M238 52v11h-6v8h-7V59l6-1 1-5c3-1 3-1 6-1"/><path fill="#59360F" d="M203 210h15v13h-7l-2-5-8-1 4-1z"/><path fill="#8F98A5" d="M140 380h1v14h-6v14h-7l3-1 1-8-2-1v-3h2l-.812-3.25L131 388c2.564-2.707 4.472-3.824 8-5z"/><path fill="#050604" d="M225 278h7v24h-6z"/><path fill="#818285" d="M161 210h12v6h7v8l-5-1v-2l-2.937-.375L169 220l-1-2a129 129 0 0 0-7-2z"/><path fill="#676C73" d="m413 408 1 5h6v1l-7 1-1 6h-5v-6h-7v-6h-6v-1q3.061-.294 6.125-.562l3.445-.317c3.319-.117 6.186.213 9.43.879"/><path fill="#A77222" d="M238 78h1q.291 3.906.563 7.813l.17 2.236c.225 3.319.33 5.763-.733 8.951h-2l-.375 1.688c-.69 2.554-1.52 4.907-2.625 7.312l-2 1c-.432 2.98-.432 2.98-.562 6.438-.343 6.373-.343 6.373-1.438 8.562h-2v-19h5V90h5z"/><path fill="#0A0A0A" d="M134 251h7v20h-7z"/><path fill="#090908" d="M203 125v14h-5v11h-6l.254-1.863.309-2.45.316-2.425c.269-2.43.269-2.43-.879-5.262l1.875-.5c2.96-2.09 2.925-4.158 3.629-7.59.822-3.164 2.166-4.91 5.496-4.91"/><path fill="#0A0A09" d="M231 435h68c-3 3-3 3-5.828 3.323-1.148-.025-2.297-.05-3.48-.074l-3.942-.062-4.262-.113q-2.18-.042-4.359-.08c-3.822-.07-7.644-.16-11.467-.252-3.9-.09-7.802-.165-11.703-.24q-11.48-.227-22.959-.502z"/><path fill="#ECC249" d="m220 111 5 1v8l2 1h-4v15h-5l4-2v-11l-4 1c-2.75-.937-2.75-.937-5-2l-2 2c-.25-2.812-.25-2.812 0-6 1.875-1.875 1.875-1.875 4-3h2c1.637-1.96 1.637-1.96 3-4"/><path fill="#343638" d="m206.25 216.75 2.75.25 2 6h14v1h-19v6h-3v14h-1l-.184-2.598c-.565-10.348-.565-10.348-2.816-20.402 2.41-2.967 3.347-3.95 7.25-4.25"/><path fill="#CE9F3F" d="M232 64h7v7h5v1l-6 1v2l-6 1 1 3-4-1 1 5-3 1c-1.262-2.525-1.099-4.312-1.062-7.125l.027-2.758L226 72h6z"/><path fill="#7E4C1D" d="M217 157h1v17c-9.625.25-9.625.25-13-2l2-2 .75-2.937c1.626-3.985 3.442-4.318 7.25-6.063 1.405-2.05 1.405-2.05 2-4"/><path fill="#141413" d="M226 347h12v6h-11v7h-8v-7h7z"/><path fill="#BAC0C9" d="M400 361h12v6h-5v7l-7 1z"/><path fill="#0C0C0C" d="M120 285h7v20h-6z"/><path fill="#1C1D1E" d="M420 346h8v15h-8z"/><path fill="#494A4A" d="M212 260h7v11h7q.061 3.5 0 7c-1 1-1 1-4.562 1.063L218 279v-7h-7v-5h-5v-4h-6v10h-1v-11h8v4h5v5h6v-10h-6z"/><path fill="#623D15" d="M134 182h6v7h35v8l-4 1v-2h3v-6h-33l-1 15h-1v-14h-5z"/><path fill="#707680" d="M185 250h7v21h-7l2-1c1.192-4.369 1.022-6.956-1-11h-1z"/><path fill="#B0B6C0" d="M410 265h5c2.363 12.731 4.067 26.036 3 39l-2 2q-.254-5.281-.5-10.562l-.145-3.002c-.24-5.152-.413-10.279-.355-15.436l-5-1z"/><path fill="#626261" d="M250 182h1v6h5v9l4 1v11h6v15h-1v-14l-5.957.195C257 210 257 210 254 208c-1.252-4.524-.857-8.293-.062-12.875l.59-3.492L255 189h-5z"/><path fill="#778CA9" d="M412 421h7c1 1 1 1 1.098 3.941l-.036 3.622-.027 3.628L420 435h-8z"/><path fill="#FBFDFB" d="M96 362h8q.039 3.219.063 6.438l.035 3.62C104 375 104 375 103 376h-7z"/><path fill="#928C81" d="M238 44h19v6h-1v-5h-17v6c-2.647 1.46-3.894 2-7 2l.063 2.438C232 58 232 58 231 59h-6v12h7v1h-6v12h-6v-1h5V72h-7v-1h6V58l6-2-.062-2.437C230 51 230 51 231 50q3.5-.062 7 0z"/><path fill="#75685A" d="m136.941 160.902 3.621.036 3.63.027L147 161l-1 3-12-1v18h7v8h-1v-7h-6v9h5v1c-2 .043-4 .04-6 0-1-1-1-1-1.098-3.285l.036-2.778.027-2.785L132 181h-6v-11l-4-1h5v11h6l-.035-3.902-.028-5.036-.025-2.576-.01-2.45-.016-2.27c.198-3.074.946-2.76 4.055-2.864"/><path fill="#B9BDC4" d="M386 325h15v7h-15z"/><path fill="#989DA6" d="m161 219 5 2v2l1.574.297c8.13 2.356 17.048 7.215 23.426 12.703 1.124 3.076 1.105 6 1.063 9.25l-.028 2.703L192 250h-1l-.187-3.687c-.55-4.503-2.263-6.44-5.813-9.313l-3-2v-2l-1.64-.309c-2.966-.869-5.415-2.246-8.11-3.754l-2.984-1.66L167 226v-2h-4z"/><path fill="#7A746F" d="M238 106h14v1h-5l.035 3.43.028 4.445.025 2.262c.025 5.636.025 5.636-1.088 7.863h-5v16h-1v-17h5v-15c-4.959 3.221-4.959 3.221-5.707 6.14l-.106 2.11L239 121h-1z"/><path fill="#E5E7E9" d="M148 238h7q.039 3.219.063 6.438l.035 3.62C155 251 155 251 154 252a145 145 0 0 0-.562 6.063l-.254 3.347L153 264h-1l-.148-2.555-.227-3.32c-.07-1.09-.14-2.181-.21-3.305-.148-2.95-.148-2.95-2.415-4.82h-1z"/><path fill="#0B0B0A" d="M127 271h7v14h-7z"/><path fill="#0B0200" d="M250 198h4l.113 2.117.2 2.758.175 2.742c.3 2.745.3 2.745 3.512 4.383.188 3.125.188 3.125 0 6h-8z"/><path fill="#575E6A" d="m192 232 1 4 3 1c2.25 1.438 2.25 1.438 4 4 .043 3.4-.413 6.656-1 10h-7z"/><path fill="#5F7087" d="M402 333h1v5h17v7h7v1h-7v6h-8v-6l-2-1 8-1 1-5h-17z"/><path fill="#A1AAB6" d="M415 265h1v7h3v40h-5l-1 2c.875-5.75.875-5.75 2-8h2c.548-15.677.548-15.677-1.531-31.094-.807-3.282-.525-6.54-.469-9.906"/><path fill="#B3853C" d="M134 163h1v16h8l.375 1.938L144 183l2 1v2c2.955.834 5.701 1.179 8.766 1.316l2.695.127 2.789.12 2.836.13q3.457.159 6.914.307v1h-29v-8h-7z"/><path fill="#030305" d="M143 381h5v16l-5-1c-2.09-3.134-2.274-3.975-2.25-7.562l-.016-2.38C141 384 141 384 143 382z"/><path fill="#D0D2D5" d="M393 367h7v13h-6l-2-2c.023-2.602.023-2.602.375-5.625l.336-3.04z"/><path fill="#8F96A0" d="M176 271h6c1.807 4.624 2.218 8.425 2.125 13.375l-.055 3.773L184 291h-5v-4h2v-8l-5-2z"/><path fill="#050302" d="M245 109v13c-6 2-6 2-8 2l-2 4h-1v-5l1.938-.5L238 121c.258-2.003.51-4.01.66-6.023.597-3.472 2.746-5.977 6.34-5.977"/><path fill="#060705" d="M88 362h7v13h-7z"/><path fill="#06090C" d="M412 361h8v6h-6l-1 7h-6v-7h5z"/><path fill="#BB8D3C" d="M239 51h10v8l-3.375.438c-3.446.346-3.446.346-5.625 1.562l-1 2z"/><path fill="#070706" d="M219 428h12v7h-12z"/><path fill="#030304" d="M387 244h14v6h-14z"/><path fill="#AEB0B5" d="m161 221 1.395 1.414c1.572 1.603 1.572 1.603 3.292 2.961 1.802 2.23 1.539 3.84 1.313 6.625l2.563.688c4.111 1.57 6.94 3.655 10.437 6.312l-2 2c-4 0-4 0-6.312-2.25L169 236q-1.86-.845-3.75-1.625c-1.8-.93-1.8-.93-3.25-2.375-.91-3.674-1.046-7.226-1-11"/><path fill="#866F43" d="M175 196h17v6h8l.25 3.375c.329 3.683.329 3.683 2.813 5.063L205 211v5h-6v-13l-3.75.313c-2.25.015-2.25.015-4.25-.313l-1.75-2.437c-2.87-3.27-4.254-3.048-8.5-3.375A214 214 0 0 0 175 197z"/><path fill="#E8BA43" d="m204 152 1 4h2l1-2v2l2 1 1-1 1 4h-7l-1 6-5 1c-.462-4.927 1.172-8.507 3-13h2z"/><path fill="#6A6B6C" d="M179 291h6v1h-5v14h6v-15h7v1h-6l.035 3.246.028 4.192.025 2.142c.009 1.807-.036 3.614-.088 5.42l-1 1h-5v11h-1l-1-10-3-1c-1.687-1.562-1.687-1.562-3-3h6z"/><path fill="#6C6865" d="M190 136h6l-1.5 1.375c-1.726 1.501-1.726 1.501-1.5 3.625l2 1h-2l-1 20h-6v-1h5v-10h-7v11l-3-1h2v-11h7z"/><path fill="#959CA6" d="M117 420h-3v7h-7v8h-5l.805-1.977c1.873-4.636 3.688-9.251 5.195-14.023 3.779-1.05 5.65-1.11 9 1"/><path fill="#E2E3E4" d="M393 403h1v6h6v6l-3 1a95 95 0 0 0-4 5v-6h-3l1-7h1z"/><path fill="#080908" d="M96 347h4v3h2v11h-6z"/><path fill="#9C9C9D" d="M100 333h1v14h-5v14h6v1h-6v14h-1v-14h-7v13h-1v-14l7-1 1-14h5z"/><path fill="#CEA442" d="M210 108h7l2 5-4 5-1-2c-2.565 2.565-2.54 4.477-3 8h-1z"/><path fill="#040403" d="M427 422v13h-7c.113-1.98.241-3.959.375-5.937.07-1.103.14-2.205.21-3.34L421 423c2.175-1.087 3.584-1 6-1"/><path fill="#61605F" d="m225 172 4 1h-3v8h11v-6l9-1v7l4 1h-5v-6l-5 4 3 2h-18z"/><path fill="#070808" d="M219 414q.039 2.688.063 5.375l.035 3.023C219 425 219 425 218 427h-5c-.276-1.6-.52-3.205-.75-4.812l-.422-2.708c.172-2.48.172-2.48 1.969-4.304C216 414 216 414 219 414"/><path fill="#DBDFE3" d="M409 309h1v16h-7q.464-2.688.938-5.375l.527-3.023C405 314 405 314 406 312h2z"/><path fill="#444851" d="m192 224 3 4-1 2 3 1c.688 2.063.688 2.063 1 4h2c2.29 3.435 2.178 4.985 2 9-3.718-1.24-4.674-2.923-7-6l-2-2c-1.477-3.841-1.067-7.953-1-12"/><path fill="#141515" d="M401 325h9v8h-9z"/><path fill="#D9DBDE" d="M272 352h35l-4 1-1 2-4-1-1 2-1-2c-2.025-.652-2.025-.652-4-1v2l-9 1v-2l-5.957.195C275 354 275 354 272 352"/><path fill="#B0CEF4" d="M270 291h1v15h-8v-8h7z"/><path fill="#BDC2CD" d="m172 244 7 2v2l4 2v4l2 3h-4l-1-3-5-1v-2l-4-1 2-1z"/><path fill="#8F98A6" d="M143 357h2v2l3 1 1.438-1.5C151 357 151 357 152 357v10c-6.41-.484-6.41-.484-9-2.75-1.258-2.83-.89-4.335 0-7.25"/><path fill="#51300C" d="M203 174h15v1h-6v6h-9z"/><path fill="#101011" d="M160 203h6v6h-5v15h-1l-1-12h-5l-1-2h6z"/><path fill="#A5A5A5" d="M217 339h21v8l-4 2-1-1a236 236 0 0 0-7-1v6h-7v-1h6l-.062-2.937C225 346 225 346 226 345c1.853-.072 3.708-.084 5.563-.062l3.066.027L237 345v-5h-20z"/><path fill="#C0C5CE" d="M411 282h2l1 11h1c.492 6.4.492 6.4-2 9.438L411 304c-1.095-6.978-1.352-13.941-1-21z"/><path fill="#070806" d="m110 319 3 1v13h-5v-13z"/><path fill="#BB9439" d="M198 139h5l-4 1 1 9h1v11l-3 1c-.879-6.152-.879-6.152-1-8l1-1-5-1v11h-1v-12h6z"/><path fill="#050504" d="M219 72h6v11h-6z"/><path fill="#777" d="M211 414h5l-2 3h-2l.5 1.625c.597 2.834.566 5.487.5 8.375h5l1-2v10h12v8h-1v-7h-12v-7h-5c-1.748-5.244-2.194-9.473-2-15"/><path fill="#B1B3B6" d="M154 224c5 1 5 1 7 3 .414 2.383.414 2.383.625 5.125l.227 2.758L162 237l-1-3-5-1-1 5h-1z"/><path fill="#AA7625" d="M192 168h13l-2 1v2l-5 2 4 2h-10z"/><path fill="#101111" d="M401 251h9v7h-9z"/><path fill="#A4742B" d="M201 209h18c.968 3.873 1.076 7.036 1 11l2.813-.187C226 220 226 220 229 223h-11v-13h-17z"/><path fill="#352822" d="M244 216h6v7h15v1h-14v6h-1l-1-6-5-1z"/><path fill="#694012" d="M203 210h15l-4 1v3l-5 1v3l-8-1 4-1z"/><path fill="#B3B3B4" d="M218 353h1v7h8v-7h11v3l-2 2v-4c-3.284.768-3.284.768-5.168 4.04-1.532 1.921-2.332 2.83-4.733 3.451-2.165.098-4.25.035-6.411-.116l-2.245-.082A220 220 0 0 1 212 361v-1h6z"/><path fill="#787370" d="M257 50h3v7l2.438-.062C265 57 265 57 266 58c.086 1.343.107 2.69.098 4.035l-.01 2.451-.026 2.576-.013 2.588q-.02 3.175-.049 6.35h-1V59h-15l4-1 1-3h3l1-4z"/><path fill="#8B561E" d="M217 157h1v10l-2-2-3 2-2-1 1 6-7 1 2-3 .75-3c1.633-3.92 3.49-4.276 7.25-6 1.405-2.05 1.405-2.05 2-4"/><path fill="#76808E" d="M410 314h3v11h7v2h-9v6h-1z"/><path fill="#2C2722" d="M205 223h20v1h-19v6h-3v14h-1l-1-18 4-1z"/><path fill="#050505" d="m175 307 5 1v11h-6l.563-2.25c.438-2.756.138-4.122-.563-6.75z"/><path fill="#8E571A" d="M232 216h11l-1 2-1.75.313c-3.305 1.01-4.93 3.188-7.25 5.687-1.687 1.813-1.687 1.813-3 3h-2c-1.625-2-1.625-2-3-4h7z"/><path fill="#86A4CE" d="M251 394h43v1l-3.517.012c-4.309.022-8.617.077-12.926.14q-2.796.036-5.593.044c-2.681.009-5.36.05-8.042.097l-2.523-.012c-5.044.114-5.044.114-8.957 3.263L251 401z"/><path fill="#040504" d="M226 347h12v5h-12z"/><path fill="#8A8A8A" d="M154 142h13c1.125 6.75 1.125 6.75 0 11h-1v-9l-5.957.879C158 145 158 145 155 144v5h-15v-1h14z"/><path fill="#767B83" d="M135 394v14h-7l3-1 1-8-2-1v-3c2-1 2-1 5-1"/><path fill="#858994" d="M182 224h10v11l-1-3-3-1-2-2-2.125-1.5L182 226z"/><path fill="#A3AAB5" d="m172 281 2 1c.963 3.852 1.345 6.164-.187 9.875C172 294 172 294 168 295l-1 10h-1v-14h6z"/><path fill="#6D6659" d="M185 197c3.161 1.37 3.993 1.99 6 5 1.964.577 1.964.577 4.125.688L199 203v6h-3l1-5h-5l-1 4h-2c-1.962-3.668-3.393-6.872-4-11"/><path fill="#0C0D0C" d="M203 368h8c-1.964 1.506-3.783 2.891-6 4v31h-2z"/><path fill="#AE8139" d="M212 189h25v1h-11v2h-2l-1 3-1-4-8 2z"/><path fill="#6C95D7" d="M271 292h23c-1 2-1 2-2.59 2.633-3.99.608-7.987.33-12.01.152-3.97-.118-3.97-.118-7.365 1.723L271 298z"/><path fill="#C8D5E6" d="M401 415h6v6h5v13l-3-1 2-9-4-1c-1.75-2.562-1.75-2.562-3-5l-2 1z"/><path fill="#8B929E" d="M146 367h1v13h-6c-.187-2.875-.187-2.875 0-6l3-2c1.205-2.552 1.205-2.552 2-5"/><path fill="#99A4B4" d="M412 353h7c-.875 6.875-.875 6.875-2 8-1.666.04-3.334.043-5 0z"/><path fill="#7B7B7A" d="M202 108h1c.135 2.73.234 5.455.313 8.188l.126 2.33c.094 4.357.062 5.905-2.908 9.326L198 130c-.88 3.182-.88 3.182-1 6h-1v-13h6z"/><path fill="#979CA4" d="M400 367h7v7l-7 1z"/><path fill="#7A7A7A" d="M420 361h7v1h-6v6c-4.875 1-4.875 1-6 1l-1 6h-7v6h-1v-6h-5v-1h12v-7c3.133-1.044 3.99-.934 7 0z"/><path fill="#0C0C0B" d="M212 361h7v7h-7z"/><path fill="#A1A8B2" d="M401 325v7h-10c0-2 0-2 1.688-4.062 2.676-2.243 4.821-2.938 8.312-2.938"/><path fill="#151515" d="M212 312h7v7h-7z"/><path fill="#524F4E" d="m161.625 200.938 3.04.59L167 202v8h-6v-1h5v-6h-6l-1 7h-6v-1h5v-6l-5 1 1-3c2.815-1.407 4.57-.667 7.625-.062"/><path fill="#57442D" d="M160 196h10l-3 6h-7z"/><path fill="#111211" d="M219 304h6v8h-6z"/><path fill="#3B1F0C" d="M250 210h8v6h-8z"/><path fill="#040506" d="M115 421q3.5-.062 7 0c1 1 1 1 1.063 3.563L123 427h-8z"/><path fill="#111519" d="M410 258h6v6l4 1h-10z"/><path fill="#8A8E99" d="M180 257h5v2h-2l.5 3.25c.5 3.75.5 3.75.5 7.75h-3c-1.322-2.645-1.097-4.678-1.062-7.625l.027-3.04z"/><path fill="#6E819C" d="M394 408c4.161-.082 7.947.018 12 1l1 6h-7v-6h-6z"/><path fill="#B0B4BD" d="M175 240c3.156.207 6.068.811 9 2 2.063 3.125 2.063 3.125 3 6h-4l-1-3-2.875-.312C176 244 176 244 174 241z"/><path fill="#080404" d="M134 182h6v7a88 88 0 0 1-5 1c-1-1-1-1-1.062-4.562z"/><path fill="#CED8E3" d="m403 352 9 1v8h-7l3-6-5-2z"/><path fill="#040507" d="M108 428h6v7h-6z"/><path fill="#A0A8B5" d="M134 367h7l1 3-5 2-.375 3.438L136 379l-2 1z"/><path fill="#44260D" d="M167 190h7v6h-14v-1l10-1-4-2z"/><path fill="#1E120B" d="M218 157h1v13h5c1.203 2.405 1.1 3.95 1.063 6.625l-.028 2.477L225 181h-1l-2-9-4 2z"/><path fill="#E2CA79" d="M232 64h6v7h-6z"/><path fill="#855929" d="M243 78h1v28h-5l1.468-1.14c2.108-2.56 1.96-4.332 2.044-7.622l.107-3.388.069-3.537.103-3.573q.124-4.37.209-8.74"/><path fill="#B3D1F2" d="M379 291h1l.367 2.371.508 3.067.492 3.058L382 302l2 1c-1.25 3.653-1.671 4.78-5 7-1.664-3.328-.819-6.997-.562-10.625l.158-2.43q.196-2.973.404-5.945"/><path fill="#E3E4E5" d="m230 268 2 1-2 1zm-1 2c2 2 2 2 2 6l3-1 1 4-2 1v-3h-7c-.187-2.375-.187-2.375 0-5z"/><path fill="#211209" d="m225 59 3 1-1 8 3 1 1-5h1v7h-7z"/><path fill="#845B22" d="M238 51h1l1 8h3v7l-2 1-2-1v-2h-7v-1h6z"/><path fill="#4F4E4C" d="M170 196q2.514.428 5 1v7l-8-2c1.875-4.875 1.875-4.875 3-6"/><path fill="#799ACC" d="M245 401h6l-1 2.375c-1.119 2.468-1.119 2.468-1 4.625l2 1h-6z"/><path fill="#150601" d="M231 136h2l-1 13-5 1v7l-2-1v-8h6z"/><path fill="#CFD1D4" d="M394 409h6v6c-2.49 1.245-3.41.777-6 0z"/><path fill="#DBDDE0" d="M393 367h7v1h-5c.114 1.626.242 3.25.375 4.875.07.905.14 1.81.21 2.742.21 2.562.21 2.562 2.415 4.383l-6-1z"/><path fill="#55585C" d="m192 232 .313 1.938L193 236l3 1c2.25 1.75 2.25 1.75 4 4-.25 2.75-.25 2.75-1 5-3.2-2.133-4.92-3.774-7-7-.25-3.812-.25-3.812 0-7"/><path fill="#8A909A" d="M140 380h1v14l-4-1c.114-1.605.242-3.209.375-4.812.07-.894.14-1.787.21-2.708C138 383 138 383 140 380"/><path fill="#B8BBBE" d="M225 244h15c-3 2-3 2-5.562 2.5-2.607.301-2.607.301-4.438 2.5v-2l-4-1 1 3h-2z"/><path fill="#D0D1D3" d="M211 319h8v2l-2.375.438c-2.777 1.277-2.777 1.277-3.402 3.699A93 93 0 0 0 212 332h-1z"/><path fill="#445163" d="M416 263h5l-1 9h-4z"/><path fill="#888E99" d="M219 266h7v5h-7z"/><path fill="#D3D4D7" d="M219 256c2.125.938 2.125.938 4 2v4h-2v2l3 1v1h-5v-7h-2v-2z"/><path fill="#70654E" d="m199 209 6 2v5h-6z"/><path fill="#CB9E44" d="m220 84 6 1-1 3h-2l-1 6h-2z"/><path fill="#CA9B3F" d="M186 162h5l1 6h-6z"/><path fill="#7D562B" d="M232 123h1v12h-3v9h-1c-.44-7.518.714-13.842 3-21"/><path fill="#BFCFE0" d="M263 298h7c-1.312 1.5-1.312 1.5-3 3h-3v3h5l1 2h-7z"/><path fill="#3C3B3D" d="M205 217q2.514.428 5 1l1 5h-8l2-1-.562-1.937L204 218z"/><path fill="#111211" d="M88 362h7l-1 4h-3c-1.497 1.497-1.332 2.988-1.562 5.063L89 375h-1z"/><path fill="#7A5329" d="M227.063 145.938 230 146v2h-5v9h-6l3-1 .184-1.934.254-2.504c.08-.823.162-1.647.246-2.496.51-3.33.888-3.057 4.379-3.129"/><path fill="#72757A" d="M165 210h8v6l-4-1v-2l-3 1z"/><path fill="#3D1F09" d="M218 174v1h-6v6l-6-3 1-3c3.49-1.477 7.274-1.072 11-1"/><path fill="#E3B53F" d="m195 160 1 2h2v4h-5l-1 2-1-6z"/><path fill="#1A0801" d="M201 125h2v14l-4-1 .473-1.863.59-2.45.597-2.425c.539-2.422.539-2.422-.66-5.262z"/><path fill="#D5AE4F" d="M220 94h1v8h-2v5l-2 1V97h3z"/><path fill="#D9B04E" d="M239 72h5v6h-7l2-1z"/><path fill="#D2DDE8" d="M100 421h1q.039 3.219.063 6.438l.035 3.62C101 434 101 434 100 435c-1.666.04-3.334.043-5 0 .313-1.937.313-1.937 1-4l3-1z"/><path fill="#6782AB" d="M407 415h5v6h-5z"/><path fill="#657894" d="M407 361h5v6h-5z"/><path fill="#88919E" d="M172 305h1v14h-6v-3l5-1z"/><path fill="#0A0E14" d="m419 311 1 3h-4c-.917 2.75-1.109 4.36-1.062 7.188L415 325h-2a888 888 0 0 1-.062-5.375l-.036-3.023C413 314 413 314 414 312c2.563-.625 2.563-.625 5-1"/><path fill="#050505" d="M420 361v6l-6-1v-4c2.076-.553 3.844-1 6-1"/><path fill="#717170" d="M225 346h13l-4 3-1-1a236 236 0 0 0-7-1v6h-7v-1h6z"/><path fill="#919190" d="M204 408c2.375-.187 2.375-.187 5 0 2.21 3.314 2.225 4.345 2.125 8.188l-.055 2.73L211 421h-1l-.375-2.937L209 415l-2-1v-5z"/><path fill="#C79D43" d="M173 168h7v7l-3-1 1-4-3 3-3-1z"/><path fill="#E0B752" d="M193 151h6c-1.375 2.5-1.375 2.5-3 5h-2v6h-1z"/><path fill="#131313" d="M403 401h5l-1 7-5-2z"/><path fill="#484747" d="M134 189h7l-1 16h-1v-14h-5z"/><path fill="#E5CD79" d="M180 169h6l-1 5-5-1z"/><path fill="#946E38" d="M134 161h13l-1 3-12-1z"/><path fill="#7A7D83" d="M120 413h8v1h-7v7h-7c3-2 3-2 5-2z"/><path fill="#E2E1E1" d="M219 312h5v5l-5 2z"/><path fill="#D0D4D9" d="M401 258h9v7l-5-5-3 1z"/><path fill="#120400" d="M224 72h1v11h-5l1-2h2l-.062-3.937A59 59 0 0 1 223 73z"/><path fill="#BCC4D1" d="M399 347h8v4l-7-1z"/><path fill="#644A2C" d="M203 210h5l-2 1c1.309 3.122 1.309 3.122 4 5l-1 2-8-1 4-1z"/><path fill="#8A531A" d="M227 137h2l1 9-3 1-2-2 1-1q.553-3.493 1-7"/><path fill="#A67220" d="M223 122h5v2h-3l-1 12h-1z"/><path fill="#A8AFBC" d="M101 421h6c-1.393 3.367-2.979 4.986-6 7z"/><path fill="#03060A" d="M407 409h5v5h-5z"/><path fill="#B7BFCB" d="m413 306 3 1v3l-2 1-1 3h-3l1-5h2z"/><path fill="#D4D4D7" d="m239.625 249.938 2.14.013q2.618.02 5.235.049v1h-13v2l-3 1-1-3c3.065-1.533 6.268-1.103 9.625-1.062"/><path fill="#603B11" d="M160 196h6l-1 5-4-1z"/><path fill="#AC7922" d="M212 148h6l-2 1-1 3-2 6h-1z"/><path fill="#180700" d="M197 140h1v10h-6v-2h4z"/><path fill="#7090BB" d="M408 346h4v6h-4z"/><path fill="#989DA5" d="M415 306h3l1 6h-5l-1 2c.875-5.75.875-5.75 2-8"/><path fill="#0C0200" d="M147 196h13l-1 3-12-2z"/><path fill="#855B2C" d="M249 51h1v8l6 1 1 3h-2v-2l-5 1c-1.203-2.405-1.1-3.95-1.062-6.625l.027-2.477z"/><path fill="#8E95A0" d="M107 428v7h-5a101 101 0 0 1 2-6c2-1 2-1 3-1"/><path fill="#DDDEE1" d="M295 352h12l-4 1-1 2-4-1-1 2z"/><path fill="#A8ABAE" d="m161 221 3 3 1.688 1.5C167 227 167 227 167 230c-2.468-1.152-4.048-2.048-6-4-.125-2.625-.125-2.625 0-5"/><path fill="#110400" d="m258 59 1 3h2l-1 7h-2z"/><path fill="#B18034" d="m239 56 9 2v1l-2.875.438c-3.018.391-3.018.391-5.125 1.562l-1 2z"/><path fill="#141619" d="M407 367h5v2l-2 1c-.652 2.025-.652 2.025-1 4h-2z"/><path fill="#91A8C8" d="M412 353h6l-1 4h-3z"/><path fill="#E7EDF3" d="M144 346h2l1 7c-2.5-1.375-2.5-1.375-5-3v-2h2z"/><path fill="#0A0D11" d="M160 333h7l-2 1-1 2h-2l-1 5h-1z"/><path fill="#895927" d="M252 64h4l1 4h-6z"/><path fill="#2C2C2C" d="M203 368h8c-2.56 2.011-5.046 3.628-8 5z"/><path fill="#4A341F" d="M210 217h2l1 3c1.997 1.685 1.997 1.685 4 3h-6z"/><path fill="#735E3C" d="M192 203h7v6h-3l1-5h-5z"/><path fill="#0E0F0F" d="m225 59 3 1-2 11h-1z"/><path fill="#060C14" d="M413 414h2l-1 5 2 1-4 1c-.043-2-.04-4 0-6z"/><path fill="#888F9B" d="M150 360h2v7h-5l1.5-2.375c1.665-2.41 1.665-2.41 1.5-4.625"/><path fill="#475C7B" d="M412 346h8v6l-.625-1.937c-1.27-2.412-1.27-2.412-4.5-2.813L412 347z"/><path fill="#D6A843" d="M179 175h7v6l-1.812-1.875c-2.196-2.262-2.196-2.262-5.188-4.125"/><path fill="#7B572F" d="M243 96h1v10h-5l1.438-1.062c2.24-2.78 2.233-5.452 2.562-8.938"/><path fill="#BDC1C7" d="M397 409h3v6l-4-2z"/><path fill="#4F2F0B" d="M250 210c1.938.313 1.938.313 4 1l1 3-5 1z"/></svg>